<?xml version="1.0" encoding="utf-8"?>
<!-- Generator: Adobe Illustrator 16.0.0, SVG Export Plug-In . SVG Version: 6.00 Build 0)  -->
<!DOCTYPE svg PUBLIC "-//W3C//DTD SVG 1.1//EN" "http://www.w3.org/Graphics/SVG/1.1/DTD/svg11.dtd">
<svg version="1.1" id="Layer_1" xmlns="http://www.w3.org/2000/svg" xmlns:xlink="http://www.w3.org/1999/xlink" x="0px" y="0px"
	 width="600px" height="600px" viewBox="0 0 600 600" enable-background="new 0 0 600 600" xml:space="preserve">
<path id="color_x5F_3" fill="#1A85AF" d="M163.534,397.959c0,0,34.986-40.848,1.602-86.916
	c-33.38-46.068-81.665-29.939-102.443-19.687c-18.503,9.131-44.061,29.221-35.722,78.785c8.34,49.563,52.575,73.303,103.655,48.848
	c0,0,27.211,13.874,52.694-4.066C183.32,414.922,169.286,412.809,163.534,397.959z M88.958,325.842
	c-0.736,0.318-1.61,0.623-2.621,0.908c-1.008,0.288-2.085,0.572-3.232,0.854c-1.148,0.281-2.259,0.539-3.333,0.781
	c-1.072,0.238-2.05,0.445-2.927,0.617s-1.526,0.293-1.946,0.36c-0.098,4.858-0.306,9.728-0.629,14.605
	c-0.322,4.878-0.67,9.756-1.044,14.636c-0.374,4.882-0.748,9.765-1.122,14.645c-0.375,4.881-0.663,9.756-0.862,14.622
	c2.008-0.469,4.033-0.931,6.075-1.384c2.043-0.455,4.089-0.761,6.136-0.919c0.588-0.045,1.139,0.043,1.653,0.267
	c0.51,0.221,0.732,0.702,0.659,1.441c-0.099,1.02-0.455,1.998-1.063,2.934c-0.607,0.939-1.383,1.652-2.327,2.145
	c-0.292,0.163-0.982,0.348-2.068,0.553c-1.087,0.205-2.262,0.409-3.521,0.612c-1.26,0.201-2.46,0.397-3.597,0.592
	c-1.139,0.191-1.934,0.323-2.391,0.393c-0.159,0.606-0.48,1.042-0.952,1.306c-0.475,0.262-0.972,0.415-1.492,0.455
	c-0.589,0.045-1.258,0.009-2.003-0.107c-0.745-0.118-1.405-0.258-1.975-0.424c-1.582,0.332-3.183,0.682-4.802,1.051
	c-1.621,0.369-3.247,0.617-4.878,0.742c-1.249,0.097-1.816-0.453-1.7-1.649c0.117-1.194,0.539-2.134,1.259-2.817
	c0.722-0.686,1.565-1.223,2.534-1.611s1.995-0.678,3.08-0.865c1.086-0.188,2.054-0.385,2.899-0.59
	c0.803-9.976,1.592-19.881,2.366-29.717c0.771-9.832,1.646-19.744,2.624-29.734c-1.435,0.215-2.831,0.42-4.191,0.611
	c-1.364,0.193-2.722,0.341-4.075,0.445c-0.278,0.021-0.57,0.035-0.881,0.043c-0.312,0.006-0.594-0.025-0.845-0.094
	c-0.252-0.066-0.465-0.189-0.635-0.37c-0.172-0.178-0.239-0.46-0.201-0.848c0.065-0.669,0.262-1.269,0.589-1.8
	c0.327-0.529,0.742-0.981,1.242-1.352c0.503-0.371,1.041-0.684,1.618-0.938c0.575-0.254,1.162-0.455,1.763-0.607
	c1.521-0.396,3.062-0.75,4.624-1.064c1.563-0.311,3.126-0.623,4.689-0.937c1.563-0.312,3.128-0.634,4.693-0.966
	c1.564-0.329,3.127-0.729,4.688-1.197c1.488-0.43,2.987-0.957,4.493-1.578c1.507-0.621,3.024-0.992,4.553-1.109
	c0.832-0.064,1.357,0.199,1.573,0.795c0.218,0.595,0.292,1.258,0.221,1.998c-0.06,0.599-0.178,1.174-0.353,1.729
	c-0.176,0.557-0.476,1.094-0.906,1.613C90.183,325.217,89.696,325.524,88.958,325.842z M97.092,338.018
	c-0.194,0.224-0.401,0.494-0.621,0.807c-0.221,0.314-0.465,0.613-0.734,0.895c-0.269,0.283-0.55,0.523-0.845,0.721
	s-0.582,0.306-0.858,0.327c-0.382,0.028-0.81-0.086-1.283-0.348c-0.475-0.258-0.906-0.583-1.298-0.971
	c-0.396-0.39-0.713-0.817-0.96-1.288c-0.247-0.47-0.351-0.898-0.313-1.284c0.026-0.282,0.161-0.616,0.405-1
	c0.246-0.386,0.515-0.774,0.813-1.163c0.296-0.389,0.601-0.771,0.912-1.145c0.311-0.373,0.568-0.707,0.771-1.002
	c0.528-0.845,0.95-1.626,1.264-2.348c0.309-0.723,0.552-1.431,0.723-2.125c0.17-0.693,0.318-1.404,0.441-2.129
	c0.122-0.725,0.295-1.531,0.521-2.424c0.131-0.637,0.371-1.057,0.717-1.259c0.348-0.2,0.816-0.325,1.405-0.37
	c1.425-0.109,2.498,0.078,3.228,0.563c0.726,0.485,1.009,1.554,0.848,3.206c-0.215,2.182-0.768,4.311-1.657,6.387
	C99.675,334.145,98.516,336.127,97.092,338.018z M142.709,358.06c-0.092,5.176-0.259,10.318-0.503,15.434
	c-0.24,5.116-0.423,10.226-0.544,15.333c0.038,0.312,0.063,0.605,0.069,0.884c0.008,0.28-0.004,0.577-0.034,0.894
	c-0.069,0.703-0.289,1.279-0.661,1.727s-0.957,0.702-1.754,0.764c-0.415,0.032-0.846,0.022-1.287-0.031
	c-0.441-0.055-0.865-0.15-1.264-0.296c-0.844-0.179-1.508-0.354-1.989-0.528c-0.482-0.17-0.838-0.413-1.065-0.728
	c-0.227-0.315-0.349-0.733-0.367-1.255c-0.018-0.521-0.001-1.238,0.055-2.151c0.428-7.188,0.824-14.315,1.188-21.377
	c0.362-7.063,0.532-14.153,0.506-21.272c-0.725,2.465-1.431,4.928-2.118,7.391c-0.688,2.461-1.397,4.96-2.127,7.494
	c-0.742,2.643-1.461,5.33-2.161,8.072c-0.699,2.745-1.64,5.416-2.823,8.021c-0.483,1.051-1.031,1.885-1.642,2.51
	c-0.612,0.622-1.491,0.977-2.636,1.066c-0.833,0.063-1.494-0.032-1.985-0.292c-0.49-0.257-0.952-0.668-1.378-1.229
	c-0.404-0.457-0.796-1.369-1.179-2.736c-0.383-1.366-0.77-2.969-1.157-4.807c-0.39-1.837-0.757-3.808-1.102-5.909
	c-0.346-2.103-0.664-4.131-0.955-6.079c-0.292-1.951-0.548-3.736-0.767-5.361c-0.22-1.623-0.395-2.85-0.519-3.678l-0.701,7.175
	c-0.459,4.679-0.828,9.332-1.108,13.962c-0.28,4.631-0.438,9.232-0.472,13.807c0.002,1.016,0.051,2.022,0.144,3.028
	c0.089,1.004,0.086,2.017-0.015,3.038c-0.089,0.915-0.451,1.536-1.087,1.865c-0.635,0.327-1.316,0.52-2.044,0.576
	c-1.978,0.152-3.455-0.162-4.43-0.941c-0.975-0.78-1.359-2.207-1.155-4.283c0.415-4.256,0.723-8.47,0.926-12.639
	c0.201-4.17,0.51-8.383,0.928-12.639c0.058-0.597,0.167-1.636,0.329-3.115c0.16-1.479,0.358-3.23,0.592-5.255
	c0.232-2.026,0.491-4.229,0.775-6.606c0.283-2.378,0.579-4.785,0.887-7.216c0.308-2.433,0.606-4.802,0.902-7.112
	c0.295-2.309,0.566-4.381,0.815-6.216c0.248-1.834,0.476-3.362,0.68-4.581c0.204-1.221,0.372-1.958,0.502-2.213
	c0.219-0.504,0.451-0.836,0.692-0.996c0.238-0.158,0.599-0.254,1.085-0.291c1.319-0.103,2.394,0.103,3.222,0.614
	c0.828,0.511,1.331,1.44,1.509,2.788c0.412,0.702,0.837,2.006,1.271,3.908c0.435,1.904,0.869,4.133,1.311,6.68
	c0.438,2.552,0.868,5.301,1.285,8.254c0.415,2.951,0.809,5.793,1.18,8.521c0.37,2.729,0.71,5.234,1.021,7.514
	c0.313,2.282,0.563,4.023,0.755,5.232c1.598-6.127,3.211-12.222,4.838-18.282c1.624-6.06,3.202-12.151,4.731-18.272
	c0.273-1.034,0.555-2.052,0.84-3.051c0.287-0.998,0.48-2.008,0.581-3.029c0.063-0.633,0.033-1.215-0.087-1.747
	c-0.121-0.53-0.151-1.097-0.093-1.696c0.072-0.737,0.351-1.203,0.834-1.398c0.485-0.193,1.021-0.313,1.61-0.359
	c0.557-0.043,1.207-0.006,1.954,0.111c0.745,0.117,1.455,0.323,2.134,0.621c0.676,0.297,1.241,0.689,1.692,1.178
	s0.642,1.086,0.574,1.788c-0.122,1.231-0.351,2.542-0.695,3.929c0.67,5.848,1.128,11.721,1.377,17.62
	C142.849,346.084,142.887,352.043,142.709,358.06z"/>
<path id="color_x5F_2" fill="#F72169" d="M459.023,519.067l29.313,34.179l-39.303,9.215l3.618-15.709
	c-47.458-10.609-92.641-0.295-136.011,8.049c-61.529,11.842-122.322,30.668-184.977,33.996c-10.315,0.549-19.975-0.611-26.7-1.518
	L104.735,600l-42.993-25.957l43.712-14.059l-0.198,11.086c58.787,3.03,120.869-15.934,149.892-21.582
	c68.319-13.301,120.786-28.045,181.396-20.965c8.744,1.021,15.314,1.874,19.733,2.469L459.023,519.067z M370.004,92.642
	c-8.032-10.673-10.467-23.445-7.306-38.316c3.212-14.87,11.088-27.616,23.627-38.237C398.917,5.363,412.595,0,427.361,0
	c14.715,0,26.087,5.363,34.118,16.088c8.031,10.725,10.466,23.471,7.307,38.237c-3.162,14.922-11.036,27.695-23.628,38.316
	c-12.539,10.57-26.165,15.854-40.88,15.854C389.512,108.496,378.087,103.211,370.004,92.642z M446.621,37.969l-47.805,47.807
	c2.967,1.145,6.267,1.752,9.941,1.752c8.818,0,16.988-3.298,24.516-9.898c7.399-6.475,12.085-14.245,14.06-23.312
	C448.619,48.375,448.359,42.933,446.621,37.969z M385.439,72.348l48.771-48.771c-3.322-1.575-7.114-2.375-11.392-2.375
	c-8.882,0-17.083,3.3-24.608,9.898c-7.398,6.476-12.087,14.216-14.06,23.219C382.724,60.947,383.156,66.955,385.439,72.348z
	 M104.008,195.432c-12.313,0.483-16.06,16.734-15.625,27.827c0.2,5.089,2.63,7.235,5.784,7.111
	c3.256-0.127,7.427-2.941,10.026-6.815l4.63-27.497C107.069,195.516,105.535,195.373,104.008,195.432z M495.954,158.247
	c-3.358,0.132-6.488,10.947-9.006,32.552c8.407-16.943,10.959-26.92,10.824-30.381C497.704,158.688,497.074,158.204,495.954,158.247
	z M539.549,229.427c0.327,8.323-6.215,15.4-14.539,15.727L59.125,263.425c-8.323,0.327-15.401-6.216-15.727-14.54l-3.173-80.927
	c-0.327-8.323,6.216-15.4,14.54-15.728l465.882-18.272c8.323-0.327,15.4,6.216,15.728,14.54L539.549,229.427z M407.146,170.292
	c3.97-0.155,7.205-3.442,7.659-7.436c0.253-3.984-2.822-7.023-6.792-6.867c-3.969,0.155-7.201,3.441-7.454,7.426
	C400.103,167.408,403.179,170.448,407.146,170.292z M220.007,177.633c3.97-0.156,7.203-3.443,7.658-7.436
	c0.251-3.985-2.823-7.023-6.793-6.868c-3.969,0.156-7.203,3.442-7.454,7.427C212.962,174.749,216.038,177.788,220.007,177.633z
	 M230.168,223.609c-0.068-1.73-1.228-2.704-3.161-2.628c-1.383,3.724-3.676,5.036-5.507,5.109c-2.036,0.08-3.447-2.107-2.53-7.342
	l4.971-29.141c0.664-3.899-1.438-5.549-5.103-5.404l-22.083,0.866l2.323-13.545c-1.256-0.767-3.005-1.208-4.838-1.137
	c-3.663,0.144-7.462,2.027-8.297,6.748l-1.503,8.417l-2.037,0.08c-3.153,0.124-4.678,2.832-4.042,6.07l5.088-0.2l-5.309,30.989
	c-0.079,0.473-0.121,0.906-0.174,1.35c-2.506,2.256-6.13,4.298-9.382,4.426c-2.033,0.08-3.404-1.088-2.909-4.063l4.067-23.603
	c1.923-10.778-2.128-15.138-7.506-14.688c-9.031,0.755-16.364,7.088-16.364,7.088c0.764-3.904-0.529-6.426-4.193-6.282
	c-4.274,0.167-7.854,2.448-11.205,5.332c-1.972,1.708-1.136,4.834,0.219,5.597c0.885-0.85,1.479-1.281,1.986-1.301
	c0.917-0.036,1.462,0.861,1.118,2.504l-4.663,26.978c-2.501,2.226-6.077,4.225-9.291,4.35c-2.646,0.104-4.346-1.663-3.349-7.411
	l5.802-33.965c-1.253-0.765-3.002-1.206-4.835-1.134c-2.542,0.1-5.152,1.119-6.802,3.223c-2.634-2.14-6.034-3.127-10.616-2.948
	c-14.143,0.554-24.949,18.713-24.251,36.522c0.256,6.513,2.808,17.013,13.392,16.598c5.801-0.228,11.026-4.713,15.065-10.886
	c0.213,8.045,5.083,10.095,9.868,9.908c4.14-0.162,9.188-1.68,13.381-4.803l-0.514,2.973c1.255,0.766,3.004,1.207,4.837,1.135
	c3.663-0.144,7.462-2.025,8.296-6.747l5.07-29.247c2.131-2.836,6.103-5.54,8.849-5.648c2.239-0.088,3.733,1.586,2.983,5.896
	l-3.479,20.419c-2.078,12.007,3.416,14.339,8.504,14.14c5.726-0.225,12.314-2.003,16.994-5.863c2.029,3.91,6.126,4.956,9.361,4.829
	c5.698-0.223,13.856-5.334,13.577-12.457c-0.068-1.73-1.228-2.704-3.16-2.628c-1.385,3.724-3.676,5.037-5.507,5.109
	c-2.037,0.08-3.449-2.107-2.53-7.342l4.881-28.832l13.638-0.535c1.627-0.064,2.575,0.714,2.236,2.459l-5.29,31.397
	c-1.572,9.336,5.256,11.922,10.346,11.723C222.29,235.843,230.447,230.732,230.168,223.609z M261.683,203.415
	c-0.052-1.322-0.607-2.524-1.365-3.615c-1.788,1.191-3.604,1.67-5.539,1.747c-3.562,0.14-7.26-0.633-11.534-0.465
	c-5.699,0.224-8.937,3.408-8.801,6.868c0.048,1.222,0.503,2.427,1.466,3.612c0.972-1.261,2.363-2.131,5.01-2.235
	c4.579-0.18,7.926,2.034,12.2,1.866C258.514,210.98,261.826,207.079,261.683,203.415z M291.394,191.751
	c0.08,2.035-0.546,4.303-1.515,5.564c1.358,0.863,2.799,1.214,4.127,1.265c3.772,0.055,7.018-2.926,6.795-8.625
	c-0.259-6.615-4.561-9.708-13.21-9.369c-11.806,0.463-17.106,8.213-16.787,16.355c0.6,15.265,17.355,13.69,17.658,21.424
	c0.195,4.987-3.853,8.305-7.721,8.457c-3.255,0.127-6.489-1.784-6.673-6.465c-0.097-2.442,0.621-4.917,1.883-6.495
	c-1.156-0.974-2.497-1.329-4.124-1.265c-4.987,0.196-7.794,3.975-8.343,8.175c-0.854,6.862,3.986,13.298,14.876,12.871
	c14.959-0.586,20.573-8.145,20.188-18.017c-0.508-12.924-17.106-9.929-17.529-20.717c-0.216-5.495,2.832-8.367,5.578-8.474
	C289.039,186.34,291.246,187.986,291.394,191.751z M485.078,208.31c0.052-1.225,0.208-2.454,0.263-3.679
	c12.443-20.567,18.414-37.211,18.104-45.149c-0.207-5.291-3.683-8.111-8.465-7.923c-13.333,0.522-19.817,22.282-22.542,59.388
	c-0.027,0.397-0.029,0.76-0.043,1.138c-2.508,2.341-6.259,4.511-9.613,4.643c-2.646,0.104-4.346-1.664-3.349-7.412l5.801-33.964
	c-1.251-0.766-3.001-1.207-4.833-1.135c-2.544,0.1-5.153,1.12-6.803,3.223c-2.634-2.14-6.034-3.127-10.616-2.948
	c-14.146,0.555-24.95,18.714-24.252,36.523c0.039,0.99,0.141,2.077,0.305,3.199c-2.508,2.327-6.24,4.474-9.576,4.605
	c-2.645,0.104-4.346-1.664-3.348-7.411l5.056-29.654c0.659-3.9-1.443-5.55-5.107-5.406c-4.274,0.168-7.854,2.448-11.205,5.333
	c-1.972,1.708-1.135,4.834,0.219,5.597c0.886-0.851,1.479-1.282,1.988-1.302c0.917-0.036,1.357,0.864,1.118,2.504l-3.48,20.719
	c-0.031,0.006-0.056,0.003-0.087,0.01c-4.15,5.972-13.311,11.53-20.636,11.817c-5.496,0.216-9.886-2.568-10.202-10.607
	c-0.574-14.655,5.612-25.803,11.312-26.027c2.545-0.101,3.806,0.869,3.881,2.803c0.057,1.425-0.343,4.192-1.368,6.68
	c1.161,0.974,2.805,1.316,4.128,1.264c3.765-0.147,7.019-2.925,6.795-8.624c-0.259-6.615-4.458-9.712-12.699-9.389
	c-7.364,0.289-13.484,4.897-17.785,11.345c-4.008,2.747-8.738,5.501-14.113,6.928c-1.572-3.709-4.916-5.82-8.886-5.665
	c-5.801,0.228-7.839,5.404-5.482,10.916c1.147,0.669,2.894,1.008,4.729,1.038c2.874,10.896-4.372,21.066-10.375,21.302
	c-3.563,0.14-6.752-3.201-7.103-12.156c-0.393-9.973,5.077-23.846,14.339-24.208c2.442-0.096,4.594,0.228,6.557,0.864
	c1.549,0.55,3.236-0.637,3.349-2.985c-3.233-4.46-7.358-5.726-12.449-5.526c-15.367,0.603-25.296,20.256-24.693,35.624
	c0.375,9.565,5.184,17.836,15.665,17.425c12.111-0.475,24.749-12.458,24.757-27.85c2.6-0.626,5.522-1.946,8.26-3.433
	c-1.035,3.925-1.521,7.964-1.371,11.796c0.491,12.517,8.448,17.914,18.015,17.538c8.101-0.317,17.336-4.803,24.048-12.232
	c-1.066,8.636,4.709,11.105,9.636,10.912c6.456-0.254,13.733-2.389,18.371-7.35c1.96,3.633,5.288,6.422,10.834,6.205
	c5.801-0.228,11.026-4.713,15.065-10.886c0.213,8.044,5.084,10.095,9.868,9.907c4.953-0.194,11.687-2.493,16.318-7.028
	c1.824,4.839,5.797,6.161,9.324,6.022c5.698-0.223,13.855-5.334,13.576-12.457c-0.068-1.73-1.227-2.704-3.159-2.628
	c-1.385,3.724-3.676,5.036-5.509,5.109C485.571,215.732,484.677,213.729,485.078,208.31z M446.945,181.981
	c-12.314,0.483-16.06,16.734-15.625,27.827c0.2,5.089,2.63,7.235,5.785,7.112c3.255-0.128,7.426-2.941,10.026-6.814l4.629-27.498
	C450.005,182.065,448.472,181.921,446.945,181.981z"/>
<path id="color_x5F_1" fill="#414042" d="M337.973,350.561c-1.946-4.928-6.396-7.486-11.821-6.899
	c-7.928,0.853-10.985,8.108-8.065,15.459c1.529,0.813,3.895,1.122,6.396,0.992c3.337,14.661-7.093,29.285-15.298,30.092
	c-4.867,0.483-9.041-3.857-9.039-16.097c0-13.633,8.204-33.01,20.86-34.348c3.336-0.352,3.894-10.973-3.059-10.248
	c-21.001,2.193-35.604,29.59-35.604,50.598c0,13.061,6.118,24.168,20.443,22.816c16.549-1.561,34.65-20.646,35.483-41.742
	c3.938-1.232,8.001-3.256,11.622-5.398c-1.86,5.876-2.877,11.9-2.877,17.521c0,17.107,10.57,23.672,23.643,22.092
	c10.862-1.311,23.646-5.008,33.227-14.315c0.787,7.644,7.163,9.449,12.809,8.792c8.242-0.965,18.967-4.709,25.857-11.147
	c2.547,4.403,6.879,7.513,14.057,6.786c7.927-0.793,15.157-3.004,21-11.709c0,0,4.689,9.326,13.073,8.703
	c5.678-0.424,13.344-2.656,19.571-7.047c-0.251,15.729,8.436,19.424,16.017,19.13c9.267-0.405,22.837-8.454,22.837-20.021
	c-0.002-2.813-1.819-4.439-4.964-4.37c-2.482,6.012-6.287,8.098-9.27,8.193c-3.306,0.106-4.634-3.15-3.64-11.958
	c0.163-1.992,0.499-3.989,0.663-5.979c21.514-33.318,32.27-59.785,32.27-72.732c0-8.602-5.461-13.421-13.239-13.305
	c-20.7,0.353-32.494,32.888-39.424,88.408c-3.501,2.953-8.26,5.584-12.477,5.873c-3.616,0.246-5.84-2.092-4.173-10.002
	c3.245-15.576,6.49-31.139,9.735-46.688c-1.67-1.008-4.033-1.551-6.536-1.379c-3.479,0.238-7.094,1.759-9.457,4.723
	c-3.478-2.791-8.065-3.955-14.324-3.405c-19.331,1.71-35.047,27.691-35.047,52.016c0,1.358,0.069,2.836,0.234,4.36
	c-3.548,3.424-8.75,6.729-13.308,7.248c-3.615,0.412-5.841-1.834-4.171-9.814c2.827-13.723,5.654-27.443,8.481-41.158
	c1.114-5.408-1.668-7.465-6.675-6.893c-5.839,0.671-10.849,4.182-15.577,8.496c-2.778,2.557-1.806,6.752,0,7.65
	c1.253-1.262,2.087-1.916,2.782-2c1.253-0.146,1.809,1.039,1.391,3.314c-1.954,9.592-3.906,19.186-5.858,28.779
	c-0.042,0.012-0.082,0.008-0.123,0.021c-5.979,8.636-18.774,17.277-28.788,18.49c-7.509,0.909-13.351-2.425-13.351-13.412
	c-0.002-20.025,9.038-35.991,16.826-36.937c3.478-0.421,5.147,0.769,5.146,3.41c0,1.946-0.694,5.786-2.224,9.31
	c1.527,1.205,3.756,1.492,5.563,1.273c5.148-0.623,9.734-4.791,9.734-12.579c0.002-9.04-5.563-12.822-16.826-11.457
	c-10.063,1.225-18.658,8.21-24.87,17.511C351.991,343.779,345.388,348.063,337.973,350.561z M551.185,288.328
	c1.819-0.025,2.811,0.793,2.812,3.606c0.002,5.647-5.082,18.048-19.812,45.482C539.646,302.314,545.723,288.398,551.185,288.328z
	 M478.364,324.078c2.086-0.176,4.706-0.142,7.068,0.505c-2.596,12.63-4.813,23.21-7.408,35.855
	c-3.754,5.463-9.597,9.605-14.047,10.032c-4.312,0.41-7.509-2.327-7.509-9.281C456.469,346.051,461.536,325.528,478.364,324.078z
	 M448.888,424.537c-0.755,4.98-4.899,9.31-9.801,9.852s-8.543-2.93-7.791-7.918c0.503-4.957,4.649-9.33,9.552-9.867
	C445.749,416.067,449.39,419.585,448.888,424.537z M497.463,27.824h-19.584l5.597-26.502h65.746l-5.595,26.502h-19.662
	l-16.942,79.584H480.52L497.463,27.824z M296.219,107.408h-20.445L298.313,1.321h21.219l7.963,48.879l9.984-48.879h20.523
	l-22.539,106.087h-21.218l-8.04-48.88L296.219,107.408z M416.971,300.555c0.557-5.488,5.147-10.336,10.571-10.951
	c5.422-0.615,9.457,3.257,8.9,8.741c-0.831,5.516-5.424,10.332-10.849,10.951C420.17,309.916,416.139,306.078,416.971,300.555z
	 M567.021,490.425c-1.55,0.013-3.533,0.172-5.793,0.625c0.566-2.552,9.467-44.89,13.427-63.547c-1.698-1.13-4.101-1.833-6.643-1.815
	c-3.533,0.022-7.209,1.341-9.612,4.207c-3.533-3.053-8.195-4.521-14.557-4.338c-19.645,0.566-35.615,26.178-35.615,50.898
	c0,1.324,0.069,2.692,0.215,4.063c-2.457,2.456-5.344,4.54-8.008,4.725c-2.512,0.172-4.145-1.217-3.39-4.914
	c2.05-9.779,3.439-15.988,5.493-25.758c2.89-13.381-1.885-18.361-8.543-17.874c-7.289,0.53-15.332,6.228-20.609,14.238
	c0.42-1.922,0.84-3.844,1.258-5.765c1.13-4.873-1.509-6.784-6.032-6.369c-5.277,0.486-9.8,3.568-14.071,7.394
	c-2.515,2.267-1.633,6.071,0,6.911c1.13-1.121,1.885-1.698,2.512-1.76c1.133-0.113,1.76,0.955,1.257,3.016
	c-1.881,8.998-3.763,18.008-5.646,27.014c-2.992,4.443-8.77,10.104-12.918,10.564c-3.266,0.359-5.433,0.656-3.924-6.551
	c2.553-12.391,5.108-24.776,7.664-37.156c1.003-4.883-1.511-6.752-6.031-6.25c-5.277,0.59-9.803,3.754-14.074,7.654
	c-2.512,2.309-1.63,6.1,0,6.91c1.133-1.14,1.887-1.73,2.515-1.805c1.133-0.133,1.633,0.939,1.257,2.993
	c-1.765,8.665-3.529,17.335-5.295,26.003c-0.038,0.01-0.071,0.006-0.109,0.018c-5.398,7.801-16.962,15.643-26.008,16.836
	c-6.785,0.889-12.063-2.038-12.063-11.964c0-18.095,8.167-32.644,15.204-33.554c3.139-0.407,4.647,0.658,4.647,3.045
	c0,1.76-0.627,5.23-2.009,8.425c1.382,1.078,3.393,1.324,5.025,1.118c4.647-0.59,8.795-4.364,8.795-11.4
	c0-8.164-5.022-11.584-15.201-10.271c-18.85,2.444-32.042,27.451-32.042,46.791c0,1.846,0.145,3.543,0.403,5.114
	c-3.208,3.263-8.01,6.509-12.215,7.11c-2.515,0.357-4.145-0.916-3.391-4.667c2.051-9.927,4.104-19.853,6.156-29.777
	c2.89-13.603-1.888-18.208-8.543-17.25c-7.289,1.048-15.332,7.249-20.609,15.563c0.421-1.946,0.841-3.892,1.258-5.839
	c1.13-4.939-1.509-6.689-6.031-6.023c-5.277,0.776-9.801,4.084-14.072,8.109c-2.514,2.381-1.633,6.146,0,6.91
	c1.13-1.174,1.885-1.787,2.512-1.879c1.133-0.168,1.76,0.87,1.257,2.955c-1.926,9.305-3.852,18.609-5.778,27.914
	c-3.69,4.91-9.973,10.487-12.674,11.111c-3.217,0.742-5.546,0.207-4.038-7.051c2.932-14.297,5.863-28.594,8.795-42.891
	c-1.506-0.781-3.642-1.095-5.904-0.76c-3.142,0.463-6.407,2.076-8.543,4.904c-3.142-2.303-7.289-3.073-12.941-2.25
	c-17.468,2.554-31.663,26.392-31.663,48.379c0,1.242,0.07,2.571,0.222,3.922c-3.205,3.195-7.913,6.317-12.033,6.877
	c-3.267,0.443-5.277-1.549-3.77-8.788c2.471-12.103,4.94-24.208,7.413-36.315c1.843-0.252,3.687-0.506,5.529-0.762
	c3.893-0.541,5.904-4.09,5.276-8.023c-3.059,0.429-6.114,0.854-9.173,1.273c1.172-5.689,2.346-11.38,3.518-17.07
	c-1.509-0.797-3.645-1.131-5.904-0.821c-4.523,0.62-9.297,3.396-10.555,9.343c-0.754,3.535-1.509,7.069-2.263,10.604
	c-0.837,0.11-1.674,0.221-2.512,0.331c-3.898,0.513-5.907,4.037-5.277,7.977c2.095-0.271,4.187-0.545,6.28-0.822
	c-2.68,13.004-5.36,26.002-8.04,38.996c-2.89,14.191,2.136,18.329,9.8,17.314c7.827-1.036,18.287-4.701,24.468-11.227
	c2.288,3.744,6.196,6.406,12.725,6.08c15.873-0.795,19.64-10.624,19.64-10.624s3.302,6.548,11.145,6.143
	c5.306-0.274,11.885-4.997,17.326-10.612c-0.456,2.207-0.913,4.414-1.37,6.621c1.509,0.781,3.645,1.094,5.907,0.759
	c4.523-0.669,9.294-3.51,10.555-9.476c2.553-12.313,5.108-24.627,7.664-36.938c2.763-3.801,7.789-7.676,11.182-8.17
	c2.766-0.402,4.522,1.479,3.393,6.92c-1.76,8.59-3.52,17.182-5.277,25.771c-3.141,15.16,3.518,17.326,9.801,16.42
	c7.736-1.117,18.104-5.151,24.315-11.602c3.87,4.99,10.208,6.745,17.399,5.787c10.2-1.369,21.508-4.287,30.009-13.229
	c0.669,6.983,6.458,8.628,11.578,8.042c6.501-0.748,12.996-4.906,18.34-10.1c-0.458,2.199-0.918,4.396-1.378,6.597
	c1.509,0.847,3.642,1.252,5.907,1.022c4.522-0.462,9.297-3.057,10.555-8.955c2.556-12.179,5.108-24.352,7.664-36.517
	c2.763-3.644,7.788-7.218,11.182-7.491c2.763-0.225,4.522,1.775,3.393,7.141c-1.76,8.475-3.521,16.951-5.277,25.432
	c-3.142,14.965,3.521,17.537,9.801,17.064c7.339-0.557,14.676-5.428,20.348-11.299c2.541,3.721,6.864,6.244,14.084,5.908
	c7.629-0.342,15.333-6.248,20.866-10.563l-3.107,11.111c-19.078,7.436-41.128,22.402-41.128,39.941
	c0,11.732,8.058,16.866,16.676,16.438c23.035-1.113,33.355-26.345,39.714-51.635c5.228-0.646,10.318-0.685,14.841,0.301
	C575.359,496.053,572.817,490.385,567.021,490.425z M277.127,507.694c-3.393,5.145-8.667,9.181-12.69,9.761
	c-3.893,0.563-6.785-1.789-6.782-8.072c0-13.698,5.401-34.311,20.605-36.533c1.885-0.275,3.771-0.302,5.904,0.139
	C281.818,484.558,279.473,496.126,277.127,507.694z M517.696,540.383c-1.836,0.092-5.796-1.388-5.796-6.332
	c0-9.605,13.006-20.837,28.551-27.549C533.242,529.919,527.449,539.891,517.696,540.383z M547.658,475.059
	c-3.815,5.324-9.751,9.186-14.273,9.361c-4.381,0.166-7.632-2.793-7.632-9.859c0-15.379,6.078-38.087,23.178-38.541
	c2.119-0.051,4.242,0.185,6.644,0.989C552.936,449.682,550.297,462.367,547.658,475.059z M159.777,463.074
	c-0.754,4.979-4.901,9.301-9.803,9.773c-4.898,0.475-8.543-3.094-7.789-8.063c0.503-4.945,4.65-9.219,9.549-9.699
	C156.633,454.607,160.28,458.121,159.777,463.074z M205.258,485.716c0,7.036-4.145,11.081-8.795,11.399
	c-1.633,0.074-3.393-0.215-5.025-1.148c1.257-1.659,2.136-4.53,2.136-7.043c0-4.648-2.639-6.465-5.652-6.107
	c-3.394,0.404-7.286,4.245-7.289,11.029c0,13.35,20.605,7.986,20.605,23.914c0,12.168-7.285,22.197-25.756,24.291
	c-7.006,0.78-11.876-0.934-14.759-3.951c-5.538,4.316-12.429,6.797-18.788,7.375c-6.28,0.578-13.569-2.344-11.182-13.977
	c2.429-11.846,4.857-23.697,7.285-35.557c0.379-2.043-0.124-3.129-1.257-3.029c-0.627,0.055-1.382,0.623-2.512,1.727
	c-1.636-0.867-2.514-4.688,0-6.912c4.271-3.76,8.795-6.805,14.072-7.309c4.522-0.434,7.034,1.447,6.031,6.322
	c-2.553,12.358-5.108,24.711-7.664,37.057c-1.509,7.178,0.503,9.254,3.769,8.938c2.306-0.223,4.795-1.246,7.102-2.641
	c-0.016-0.895,0.034-1.807,0.184-2.732c0.882-5.242,4.526-10.131,10.682-10.796c2.012-0.218,3.642,0.104,5.026,1.209
	c-1.634,2.065-2.642,5.19-2.639,8.206c0,5.781,3.896,7.867,7.915,7.408c4.774-0.542,9.928-5.051,9.928-11.207
	c0-9.516-20.736-6.029-20.733-24.912c0-10.061,6.91-20.063,21.484-21.793C200.107,474.196,205.258,477.543,205.258,485.716z
	 M199.297,382.955c0.002-13.485,8.71-26.205,25.181-26.66c5.226-0.148,10.452,3.442,10.452,9.46c0,1.583-0.317,3.181-1.107,5.11
	c-10.455-3.078-18.214,4.009-18.214,13.039c0,8.385,5.703,16.715,16.63,16.32c12.986-0.497,19.164-11.195,19.161-22.9
	c0.003-25.354-31.671-27.562-31.672-56.855c-0.004-17.749,14.098-31.141,33.415-32.246c18.054-1.061,25.657,10.117,25.655,20.596
	c0.002,8.231-4.75,15.903-12.827,16.454c-2.534,0.175-7.442-1.415-9.187-5.748c5.068-1.889,8.075-7.799,8.077-13.023
	c0-5.23-3.012-9.924-9.659-9.53c-9.821,0.57-14.889,9.793-14.889,19.936c0,22.792,33.102,27.136,33.102,54.24
	c0.001,24.518-18.058,40.42-41.812,41.293C209.591,413.197,199.297,397.638,199.297,382.955z M142.752,107.408L171.896,1.321h24.68
	l2.678,39.792l19.699-39.792h24.602l-15.933,106.087h-20.057l6.609-59.688l-22.392,59.688h-12.804l2.635-59.688l-18.727,59.688
	H142.752z M138.321,41.113h-10.569l3.809-39.792h19.896L138.321,41.113z M87.124,443.146c-32.127,1.647-47.85,12.844-47.85,26.473
	c0,6.773,4.067,12.852,10.98,12.714c1.896-0.038,3.792-0.487,5.827-1.489c-1.627-1.855-2.712-4.271-2.709-7.795
	c0-11.56,9.486-22.191,31.175-23.262c17.894-0.947,24.804,14.318,24.804,32.643c0,25.446-10.842,57.002-32.8,58.014
	c-3.798,0.168-7.185-0.783-10.438-2.161c4.067-5.292,7.59-12.759,9.895-23.026c4.292-19.842,8.584-39.709,12.876-59.6
	c-1.627-0.994-4.063-1.543-6.504-1.422c-5.018,0.25-10.301,2.768-11.658,9.191c-4.02,19.088-8.043,38.156-12.063,57.2
	c-1.083,4.64-2.44,8.336-4.067,11.087c-3.526-1.949-6.913-3.51-10.437-3.459c-9.081,0.123-14.098,6.602-14.098,12.436
	c0,5.963,5.152,9.499,12.065,9.414c5.691-0.067,12.332-1.561,18.432-6.355c4.745,3.11,10.439,5.626,17.894,5.285
	c31.042-1.493,48.391-38.197,48.391-68.225C126.839,459.194,115.454,441.557,87.124,443.146z M43.069,540.062
	c-2.846,0.038-4.878-1.304-4.881-3.336c0-1.899,2.305-3.946,6.103-4.001c2.169-0.03,4.334,1.423,6.91,3.537
	C48.492,539.031,45.51,540.03,43.069,540.062z M101.867,107.408H51.474l5.595-26.502h11.15l11.348-53.083h-11.15l5.597-26.502
	h48.879l-5.595,26.502h-11.229L94.722,80.906h12.742L101.867,107.408z"/>
</svg>
